<?xml version="1.0" encoding="UTF-8" standalone="no"?>
<svg version="1.1"
   xmlns="http://www.w3.org/2000/svg"
   x="0px" y="0px" width="110.88549" height="87.150253"
   viewBox="0 0 110.88549 87.150254"
   xml:space="preserve">
    <!-- https://uxwing.com/dishes-icon/ -->
    <path d="m 40.410156,50.449219 c -0.66,0 -1.189453,0.531406 -1.189453,1.191406 0,0.31 0.118359,0.598594 0.318359,0.808594 l 5.310547,6.623047 -4.439453,-0.002 c -0.66,0 -1.189453,0.531407 -1.189453,1.191407 0,0.31 0.118359,0.598593 0.318359,0.808593 l 5.292969,6.601563 -4.421875,-0.002 c -0.66,0 -1.189453,0.531406 -1.189453,1.191406 0,0.31 0.118359,0.598594 0.318359,0.808594 l 5.300782,6.611328 -4.429688,-0.002 c -0.66,0 -1.189453,0.531406 -1.189453,1.191406 0,0.31 0.118359,0.598594 0.318359,0.808594 l 6.761719,8.431641 c 0.23,0.29 0.569922,0.439453 0.919922,0.439453 h 54.429687 c 0.37,0 0.69992,-0.159688 0.91992,-0.429688 l 7.99024,-8.410156 c 0.45,-0.48 0.42896,-1.229688 -0.041,-1.679688 -0.23,-0.22 -0.53031,-0.330078 -0.82031,-0.330078 l -5.40625,-0.002 6.26758,-6.597656 c 0.45,-0.48 0.42896,-1.229688 -0.041,-1.679688 -0.23,-0.22 -0.53031,-0.330078 -0.82031,-0.330078 l -5.39844,-0.002 6.25977,-6.587891 c 0.45,-0.48 0.42896,-1.229687 -0.041,-1.679687 -0.23,-0.22 -0.53031,-0.330078 -0.82031,-0.330078 l -5.41797,-0.002 6.2793,-6.609375 c 0.45,-0.48 0.42896,-1.229688 -0.041,-1.679688 -0.23,-0.22 -0.53031,-0.330078 -0.82031,-0.330078 z m 2.480469,2.390625 h 64.029295 l -5.78906,6.089844 H 47.779297 Z m 0,8.621094 h 64.029295 l -5.78906,6.089843 H 47.779297 Z m 0,8.599609 h 64.029295 l -5.78906,6.089844 H 47.779297 Z m 0,8.609375 h 64.029295 l -5.78906,6.089844 H 47.779297 Z"/>
    <path d="M 42.769531,0 C 30.959531,0 20.259297,4.7795316 12.529297,12.519531 4.789297,20.259531 0,30.949766 0,42.759766 c 0,11.82 4.789063,22.509765 12.539062,30.259765 7.74,7.74 18.430235,12.53125 30.240235,12.53125 1.6815,0 3.342307,-0.0985 4.975678,-0.289138 l -2.752371,-2.592175 c -0.739083,0.04052 -1.483612,0.061 -2.233073,0.061 -11.03,0 -21.029765,-4.480938 -28.259765,-11.710938 -7.23,-7.23 -11.708985,-17.219765 -11.708985,-28.259765 0,-11.04 4.468985,-21.029766 11.708985,-28.259766 7.23,-7.23 17.219765,-11.7109375 28.259765,-11.7109375 11.04,0 21.029766,4.4707035 28.259766,11.7207035 7.24,7.23 11.710937,17.219765 11.710937,28.259765 0,2.63 -0.250234,5.211172 -0.740234,7.701172 h 2.849609 c 0.45,-2.5 0.689453,-5.071172 0.689453,-7.701172 10e-7,-11.81 -4.789296,-22.500234 -12.529296,-30.240234 C 65.269766,4.7892973 54.579531,0 42.769531,0 Z m 0,13.990234 c -7.94,0 -15.139609,3.219922 -20.349609,8.419922 -5.21,5.21 -8.429688,12.40961 -8.429688,20.34961 0,7.95 3.219688,15.139609 8.429688,20.349609 5.21,5.21 12.409609,8.429687 20.349609,8.429687 l -0.0098,-2.388671 c -7.28,0 -13.880391,-2.960469 -18.650391,-7.730469 -4.78,-4.77 -7.728516,-11.370391 -7.728516,-18.650391 0,-7.28 2.948516,-13.87039 7.728516,-18.65039 4.77,-4.78 11.370391,-7.728516 18.650391,-7.728516 7.28,0 13.87039,2.958516 18.65039,7.728516 4.78,4.77 7.730469,11.37039 7.730469,18.65039 0,2.68 -0.400625,5.261172 -1.140625,7.701172 v -0.0098 l 2.509766,0.0098 c 0.68,-2.45 1.041015,-5.031172 1.041015,-7.701172 0,-7.95 -3.22164,-15.139609 -8.43164,-20.349609 -5.21,-5.21 -12.40961,-8.429688 -20.34961,-8.429688 z m -17.1875,32.939454 c -0.135312,-0.01484 -0.274609,-0.0015 -0.412109,0.04102 -0.56,0.17 -0.878984,0.758359 -0.708984,1.318359 0.95,3.15 2.529218,5.751719 4.449218,7.761719 2.1,2.2 4.629219,3.669844 7.199219,4.339844 0.56,0.15 1.141016,-0.199766 1.291016,-0.759766 0.15,-0.56 -0.199766,-1.141015 -0.759766,-1.291015 -2.21,-0.57 -4.381172,-1.849766 -6.201172,-3.759766 -1.71,-1.76 -3.108984,-4.090391 -3.958984,-6.90039 -0.1275,-0.420001 -0.4925,-0.705469 -0.898438,-0.75 z"/>
</svg>
