<?xml version="1.0" encoding="UTF-8"?>
<svg version="1.1"
     xmlns="http://www.w3.org/2000/svg"
     xmlns:svg="http://www.w3.org/2000/svg"
     x="0px" y="0px"
     viewBox="0 0 122.88 107.68"
     style="enable-background:new 0 0 122.88 107.68"
     xml:space="preserve">
     <path d="M 61.43,13.53 C 66.76,7.51 72.8,3.69 78.96,1.69 c 6.48,-2.1 13.07,-2.15 19.09,-0.6 6.05,1.55 11.52,4.72 15.74,9.03 5.58,5.7 9.09,13.36 9.09,22.02 0,13.7 -6.6,26.75 -17.42,39.37 -10.14,11.83 -24.05,23.35 -39.61,34.73 -2.58,1.89 -5.98,1.88 -8.5,0.22 v 0.01 l -0.03,-0.02 v 0.01 L 57.3,106.45 57.09,106.3 C 52.63,103.38 48.34,100.39 44.29,97.36 40.24,94.33 36.28,91.14 32.46,87.8 12.58,70.42 0,51.4 0,32.13 0,23.33 3.44,15.69 8.93,10.05 13.18,5.68 18.66,2.54 24.72,1.02 v 0 c 5.99,-1.5 12.57,-1.4 19.05,0.69 6.22,2 12.32,5.83 17.66,11.82 z"/>
</svg>
