<?xml version="1.0" encoding="UTF-8" standalone="no"?>
<svg version="1.1"
   xmlns:dc="http://purl.org/dc/elements/1.1/"
   xmlns:cc="http://creativecommons.org/ns#"
   xmlns:rdf="http://www.w3.org/1999/02/22-rdf-syntax-ns#"
   xmlns:svg="http://www.w3.org/2000/svg"
   xmlns="http://www.w3.org/2000/svg"
   x="0px" y="0px" width="141.96449" height="135.62085"
   viewBox="0 0 141.9645 135.62086"
   xml:space="preserve">
    <!-- https://uxwing.com/food-restaurant-icon/ -->
    <metadata id="metadata11">
        <rdf:RDF>
            <cc:Work rdf:about="">
                <dc:format>image/svg+xml</dc:format>
                <dc:type rdf:resource="http://purl.org/dc/dcmitype/StillImage" />
                <dc:title></dc:title>
            </cc:Work>
        </rdf:RDF>
    </metadata>
    <defs id="defs9"/>
    <path
   id="path2"
   d="m 29.956041,7.137565 c -2.530441,0.0073 -5.448367,2.303019 -4.314453,5.154297 L 35.78026,33.012565 c 1.92818,3.873012 -4.045681,7.029759 -6.039063,3.039062 L 19.252916,14.623893 c -2.006144,-3.757591 -8.6016,-0.928405 -6.572266,3.306641 2.984084,5.923077 7.502246,15.514424 10.486329,21.4375 2.192044,3.574723 -3.15988,6.886367 -5.146485,2.599609 L 7.612291,20.680534 C 6.013804,17.86889 2.1926029,18.505801 0.6415879,21.000846 c -1.661963,2.664429 0.2955158,5.342813 1.4667969,7.871094 L 13.500963,53.588737 c 3.690036,6.999475 8.521566,11.757359 15.521484,11.310547 1.073336,-0.07036 2.443204,-0.399254 3.945313,-0.904297 l 21.847656,48.390633 c 1.356046,2.9384 4.611169,4.3803 7.675781,3.81836 -2.903257,-2.43195 -4.757966,-6.07998 -4.625,-10.2168 l 0.002,-0.0684 1.06836,-19.494146 L 43.62601,58.592603 c 1.691055,-1.190097 3.003003,-2.385557 3.583984,-3.390625 3.382437,-5.849027 3.7387,-11.432232 -1.666015,-21.095703 L 32.74901,8.707877 C 32.176423,7.603905 31.106241,7.134231 29.956041,7.137565 Z"
   style="opacity:1;fill:#000000;fill-opacity:1;stroke:none;stroke-width:12;stroke-miterlimit:4;stroke-dasharray:none;stroke-opacity:1;paint-order:stroke fill markers" />
    <path
   id="path2-6"
   d="m 76.196275,0.0106119 c -2.557267,-0.1933633 -6.94922,2.2745411 -9.236328,5.8769531 -3.326703,5.239872 -5.029952,8.852831 -6.121094,21.566406 -1.09114,12.713576 5.384766,35.675782 5.384766,35.675782 l -2.359375,43.050777 c -0.11674,3.632 2.75055,6.64951 6.283203,7.08398 -0.135042,-0.31968 -0.271972,-0.63993 -0.382812,-0.97461 -1.210442,-3.65487 -0.772235,-7.95566 1.203125,-11.91601 l 0.02734,-0.0547 5.91211,-11.281244 2.191406,-4.134766 -0.927731,-21.828115 c 0,0 -0.150852,-44.192514 0.0059,-61.0078125 -0.0345,-1.3306766 -0.818115,-1.9687482 -1.98051,-2.0566406 z"
   style="opacity:1;fill:#000000;fill-opacity:1;stroke:none;stroke-width:12;stroke-miterlimit:4;stroke-dasharray:none;stroke-opacity:1;paint-order:stroke fill markers" />
    <path
   style="opacity:1;fill:#000000;fill-opacity:1;stroke:none;stroke-width:12;stroke-miterlimit:4;stroke-dasharray:none;stroke-opacity:1;paint-order:stroke fill markers"
   d="m 124.57171,8.014288 c -1.34353,-0.03339 -2.69717,0.104852 -4.04492,0.398457 -10.65476,2.321121 -21.017564,14.310021 -24.620965,27.19543 2.904465,-0.907818 5.779725,-2.135803 7.933585,-4.371133 11.8427,-12.290746 21.14426,-18.807324 26.52924,-8.767703 3.67171,6.845417 0.59859,19.502401 -6.96081,27.308628 -8.91187,9.202872 -16.91126,-1.66257 -23.13614,7.98096 L 82.21664,91.836756 76.337719,103.05236 c -5.64061,11.30873 9.131413,17.54588 13.96488,7.27532 l 3.837916,-8.86793 17.243975,-36.617275 C 134.78688,70.143854 155.25436,22.106673 131.15569,9.6998058 129.02521,8.6041095 126.8109,8.069934 124.57171,8.014288 Z"
   id="path2-3-7" />
    <circle r="7.9328918" cy="127.68796" cx="71.693329" id="path4618" style="opacity:1;fill:#000000;fill-opacity:1;stroke:none;stroke-width:0.5;stroke-miterlimit:4;stroke-dasharray:none;stroke-opacity:1;paint-order:stroke markers fill" />
</svg>
