<svg id="Layer_1" data-name="Layer 1" xmlns="http://www.w3.org/2000/svg" viewBox="0 0 122.88 105.09"><title>lunch-time</title><path d="M61.5,0a44.6,44.6,0,0,1,44.63,44.63A43.7,43.7,0,0,1,105.8,50a30.82,30.82,0,0,0-4.62-4.08c0-.44,0-.87,0-1.31a39.7,39.7,0,0,0-79.4-.16L18.67,47.4c-.11.1-.21.2-.31.31h0c-.43.45-.85.9-1.25,1.37-.14-1.46-.22-2.94-.22-4.44A44.6,44.6,0,0,1,61.5,0Zm2.31,40a5.16,5.16,0,0,1,2.13,2h7.25a2,2,0,0,1,3-2.3l4.31,3.32a1.94,1.94,0,0,1,.76,1.53h0v0h0a1.91,1.91,0,0,1-.76,1.52l-4.31,3.33a2,2,0,0,1-3-2.3H65.94a5.14,5.14,0,1,1-7.3-6.85l.06-9.92a1.92,1.92,0,0,1-2-.27,1.94,1.94,0,0,1-.29-2.74l3.43-4.23a1.9,1.9,0,0,1,1.45-.72h0a1.94,1.94,0,0,1,1.61.79l3.23,4.38a1.95,1.95,0,0,1-2.29,3L63.81,40ZM81,71.56a2.16,2.16,0,1,1-3.66,2.3l-1.73-2.73a2.17,2.17,0,0,1,3.67-2.31L81,71.56ZM42,17.87a2.16,2.16,0,0,1,3.66-2.3l1.73,2.73a2.16,2.16,0,0,1-3.66,2.31L42,17.87ZM31.18,31.23a2.17,2.17,0,0,1,2-3.84l2.86,1.51a2.16,2.16,0,0,1-2,3.83l-2.87-1.5Zm63.32,10a2.16,2.16,0,1,1,.17,4.32l-3.23.13a2.16,2.16,0,1,1-.17-4.32l3.23-.13Zm-6.16-16a2.17,2.17,0,1,1,2.31,3.67l-2.73,1.72a2.16,2.16,0,1,1-2.31-3.66l2.73-1.73ZM75,14.4a2.17,2.17,0,1,1,3.83,2l-1.5,2.86a2.17,2.17,0,0,1-3.83-2L75,14.4ZM58,11.72a2.16,2.16,0,1,1,4.32-.17l.13,3.23a2.17,2.17,0,0,1-4.33.17L58,11.72Zm6.94,66a2.16,2.16,0,0,1-4.32.17l-.13-3.24a2.17,2.17,0,0,1,4.33-.16L65,77.72Zm50.24,25L98,79C85.16,80.1,73.79,57.65,83,51.33c11.24-7.68,28.58,14.26,20.75,23.49l18,23.47c3.69,4.82-2.59,9.91-6.55,4.43ZM28.88,71c3.57.67,6.52-.16,10.67-4.66L50.67,55.22c1.54-1.58-1.1-4.58-3-3l-9.13,8.91A1.79,1.79,0,1,1,36,58.62l9.44-9.23c1.63-1.7-.88-4.56-2.75-2.76-2.6,2.59-6.85,6.64-9.44,9.23A1.56,1.56,0,1,1,31.1,53.7l9.38-9.17A2.14,2.14,0,0,0,39.2,41c-1.64-.37-2.72,1.12-3.84,2.17l-11,10.29c-3,3.15-4.73,6.48-3.39,10a8.33,8.33,0,0,0,1.09,1.85L1.21,84.5A3.84,3.84,0,0,0,1.1,90l.33.33a4.32,4.32,0,0,0,6.17-.13l19-20.41A6.61,6.61,0,0,0,28.88,71ZM84.32,83A44.63,44.63,0,0,1,33.5,79.38a17,17,0,0,0,3.61-1,19,19,0,0,0,2-1,40.13,40.13,0,0,0,7.21,3.91,40,40,0,0,0,30.38,0,40.71,40.71,0,0,0,3.71-1.77c.3.32.62.63.93.93a30.69,30.69,0,0,0,3,2.5Z"/></svg>