<?xml version="1.0" encoding="utf-8"?>
<svg version="1.1" id="Layer_1"
     xmlns="http://www.w3.org/2000/svg"
     xmlns:xlink="http://www.w3.org/1999/xlink"
     x="0px" y="0px" viewBox="0 0 91.06 122.88"
     style="enable-background:new 0 0 91.06 122.88"
     xml:space="preserve">
    <g>
        <path d="M58.68,84.96H27.37v-3.12c0-5.32,0.59-9.65,1.8-12.97c1.21-3.35,3.01-6.36,5.4-9.11c2.39-2.76,7.76-7.6,16.12-14.52 c4.45-3.63,6.67-6.95,6.67-9.96c0-3.04-0.9-5.37-2.67-7.06c-1.8-1.66-4.5-2.5-8.13-2.5c-3.91,0-7.12,1.29-9.68,3.88 c-2.56,2.56-4.19,7.09-4.9,13.5L0,39.13c1.1-11.76,5.37-21.21,12.8-28.39C20.25,3.57,31.68,0,47.06,0c11.98,0,21.63,2.5,29,7.48 c9.99,6.78,15,15.78,15,27.04c0,4.67-1.29,9.2-3.88,13.53c-2.56,4.33-7.85,9.65-15.81,15.89c-5.54,4.42-9.06,7.93-10.52,10.61 C59.42,77.19,58.68,80.68,58.68,84.96L58.68,84.96z M26.28,93.29h33.56v29.6H26.28V93.29L26.28,93.29z"/>
    </g>
</svg>
