<?xml version="1.0" encoding="utf-8"?>
<svg version="1.1"
     xmlns="http://www.w3.org/2000/svg"
     xmlns:xlink="http://www.w3.org/1999/xlink"
     x="0px" y="0px"
     viewBox="0 0 122.88 102.56"
     style="enable-background:new 0 0 122.88 102.56"
     xml:space="preserve">
    <!-- https://uxwing.com/soup-cup-and-soup-icon/ -->
    <path d="M102.27,58.85c0.23-0.79,1.06-1.24,1.85-1.01c0.79,0.23,1.24,1.06,1.01,1.85c-0.61,2.09-1.36,4.18-2.22,6.23 c-0.86,2.02-1.82,3.99-2.89,5.87c-0.41,0.71-1.31,0.96-2.03,0.56c-0.71-0.41-0.96-1.31-0.56-2.03c1.02-1.79,1.94-3.65,2.74-5.55 C100.97,62.84,101.68,60.86,102.27,58.85L102.27,58.85z M61.02,6.31c0.83-0.83,2.18-0.83,3.02,0c0.83,0.83,0.83,2.18,0,3.02 c-3.19,3.2-1.8,5.81-0.18,8.84c2.4,4.47,5.14,9.6,0.51,17.62c-0.59,1.02-1.89,1.36-2.91,0.78c-1.02-0.59-1.36-1.89-0.78-2.91 c3.45-5.97,1.3-9.98-0.58-13.48C57.69,15.64,55.6,11.74,61.02,6.31L61.02,6.31z M80.48,0.62c0.83-0.83,2.18-0.83,3.02,0 c0.83,0.83,0.83,2.18,0,3.02c-3.19,3.19-1.8,5.81-0.18,8.84c2.4,4.47,5.14,9.6,0.51,17.62c-0.59,1.02-1.89,1.36-2.91,0.78 c-1.02-0.59-1.36-1.89-0.78-2.91c3.45-5.97,1.3-9.98-0.58-13.48C77.14,9.95,75.05,6.05,80.48,0.62L80.48,0.62z M99.94,6.31 c0.83-0.83,2.18-0.83,3.02,0c0.83,0.83,0.83,2.18,0,3.02c-3.2,3.2-1.8,5.81-0.18,8.84c2.4,4.47,5.14,9.6,0.51,17.62 c-0.59,1.02-1.89,1.36-2.91,0.78c-1.02-0.59-1.36-1.89-0.78-2.91c3.45-5.97,1.3-9.98-0.58-13.48C96.6,15.64,94.51,11.74,99.94,6.31 L99.94,6.31z M2.21,22.54c-2.34-2.93-2.66-6.07-1.72-8.73c0.47-1.34,1.27-2.54,2.3-3.52C3.8,9.32,5.04,8.57,6.4,8.13 c2.85-0.92,6.22-0.52,9.19,2.01l0.05,0.04l38.1,32.61h67.14c1.1,0,1.99,0.89,1.99,1.99c0,0.08-0.01,0.16-0.01,0.24 c-0.51,12.13-3.33,22.71-9.13,31.31c-5.86,8.68-14.72,15.28-27.24,19.34c-0.03,0.01-0.07,0.02-0.1,0.03v6.01 c0,0.46-0.38,0.84-0.84,0.84H48.33c-0.6,0-1.09-0.49-1.09-1.09v-5.82c-0.12-0.04-0.23-0.1-0.34-0.16 c-11.49-5.43-19.59-12.58-24.96-21.13c-5.39-8.58-8-18.53-8.47-29.5c-0.05-1.09,0.8-2.02,1.9-2.07c0.03,0,0.06,0,0.09,0v-0.01 h10.41L2.5,22.84C2.39,22.75,2.3,22.65,2.21,22.54L2.21,22.54z M4.23,15.13c-0.5,1.42-0.3,3.14,0.99,4.82l26.44,22.57h15.67 L13.07,13.2l-0.04-0.03c-1.8-1.53-3.78-1.79-5.42-1.26c-0.79,0.25-1.5,0.69-2.09,1.25C4.95,13.71,4.5,14.38,4.23,15.13L4.23,15.13z M25.3,72.25c4.94,7.86,12.42,14.47,23.04,19.54h37.25c11.45-3.77,19.53-9.8,24.85-17.68c5.07-7.51,7.69-16.51,8.36-27.11H17.55 C18.22,56.48,20.64,64.83,25.3,72.25L25.3,72.25z M94.68,74.57c0.48-0.67,1.41-0.81,2.08-0.33c0.67,0.48,0.81,1.41,0.33,2.08 c-0.62,0.86-1.27,1.69-1.94,2.49c-0.65,0.78-1.34,1.54-2.06,2.27c-0.58,0.59-1.52,0.59-2.1,0.02c-0.59-0.58-0.59-1.52-0.02-2.1 c0.64-0.65,1.27-1.35,1.9-2.09C93.49,76.16,94.1,75.38,94.68,74.57L94.68,74.57z"/>
</svg>
